<svg width="12" height="12" viewBox="0 0 12 12" fill="none" xmlns="http://www.w3.org/2000/svg">
<g clip-path="url(#clip0)">
<path d="M6.1815 7.47349C6.1815 6.54949 5.742 5.86649 4.834 5.61049C5.4965 5.29499 5.842 4.81699 5.842 4.07349C5.842 2.60749 4.746 2.24999 3.4815 2.24999H0V9.61049H3.579C4.921 9.61049 6.1815 8.96899 6.1815 7.47349ZM1.623 3.50649H3.146C3.7315 3.50649 4.2585 3.67049 4.2585 4.34749C4.2585 4.97249 3.8485 5.22399 3.2685 5.22399H1.623V3.50649ZM1.6225 8.36049V6.33349H3.3915C4.106 6.33349 4.558 6.63049 4.558 7.38449C4.558 8.12799 4.0185 8.36049 3.358 8.36049H1.6225Z" fill="#F2F2F2"/>
<path d="M9.39811 9.75003C10.6751 9.75003 11.5021 9.17653 11.9001 7.95753H10.6041C10.4646 8.41253 9.8896 8.65303 9.4436 8.65303C8.58311 8.65303 8.13111 8.15053 8.13111 7.29653H11.9876C12.1096 5.58753 11.1576 4.13103 9.39761 4.13103C7.76811 4.13103 6.66211 5.35203 6.66211 6.95153C6.66211 8.61153 7.71011 9.75003 9.39811 9.75003ZM9.35211 5.23703C10.0896 5.23703 10.4606 5.66903 10.5226 6.37553H8.13311C8.18161 5.67503 8.64811 5.23703 9.35211 5.23703Z" fill="#F2F2F2"/>
<path d="M7.83325 2.63657H10.8273V3.36158H7.83325V2.63657Z" fill="#F2F2F2"/>
</g>
<defs>
<clipPath id="clip0">
<rect width="12" height="12" fill="white"/>
</clipPath>
</defs>
</svg>
