<svg width="12" height="12" viewBox="0 0 12 12" fill="none" xmlns="http://www.w3.org/2000/svg">
<path d="M5.99925 0.124802C2.6865 0.124802 0 2.8218 0 6.1488C0 8.8098 1.719 11.0673 4.104 11.8646C4.404 11.9201 4.5135 11.7341 4.5135 11.5743C4.5135 11.4311 4.50825 11.0523 4.50525 10.5498C2.8365 10.9136 2.484 9.74205 2.484 9.74205C2.21175 9.04605 1.818 8.8608 1.818 8.8608C1.27275 8.4873 1.8585 8.4948 1.8585 8.4948C2.46075 8.53755 2.77725 9.1158 2.77725 9.1158C3.31275 10.0361 4.182 9.77055 4.524 9.61605C4.578 9.2268 4.73325 8.9613 4.905 8.81055C3.573 8.6583 2.172 8.14155 2.172 5.8338C2.172 5.17605 2.406 4.6383 2.79 4.2168C2.72775 4.06455 2.52225 3.4518 2.8485 2.62305C2.8485 2.62305 3.3525 2.46105 4.4985 3.2403C4.977 3.1068 5.49 3.04005 6.00075 3.0378C6.51 3.0408 7.02375 3.1068 7.503 3.24105C8.64825 2.4618 9.1515 2.6238 9.1515 2.6238C9.4785 3.4533 9.273 4.0653 9.2115 4.21755C9.59625 4.63905 9.828 5.1768 9.828 5.83455C9.828 8.1483 8.4255 8.65755 7.089 8.8068C7.30425 8.9928 7.49625 9.3603 7.49625 9.92205C7.49625 10.7276 7.48875 11.3771 7.48875 11.5743C7.48875 11.7356 7.59675 11.923 7.90125 11.8638C10.2825 11.0658 12 8.80905 12 6.1488C12 2.8218 9.3135 0.124802 5.99925 0.124802Z" fill="#F2F2F2"/>
</svg>
