<svg width="213" height="189" viewBox="0 0 213 189" fill="none" xmlns="http://www.w3.org/2000/svg">
<g id="letter">
<g id="color4">
<rect id="Rectangle 10" x="3" y="75" width="203" height="71" fill="#1B1B1B"/>
<path id="Polygon 4" d="M105.542 17.5231C106.139 17.1971 106.861 17.1971 107.458 17.5231L210.905 73.9945C212.723 74.9871 212.018 77.75 209.947 77.75H3.05352C0.981877 77.75 0.276864 74.9871 2.09521 73.9945L105.542 17.5231Z" fill="#1B1B1B"/>
</g>
<g id="color3">
<rect id="Rectangle 9" x="32" width="150" height="172" rx="8" fill="#F2F2F2"/>
</g>
<g id="color2">
<path id="Vector" d="M73.6118 34.8417H50.1251C49.3082 34.8417 48.5247 34.5169 47.9471 33.9387C47.3694 33.3605 47.0449 32.5763 47.0449 31.7586C47.0449 30.9409 47.3694 30.1567 47.9471 29.5785C48.5247 29.0002 49.3082 28.6754 50.1251 28.6754H73.6118C74.4287 28.6754 75.2121 29.0002 75.7898 29.5785C76.3675 30.1567 76.692 30.9409 76.692 31.7586C76.692 32.5763 76.3675 33.3605 75.7898 33.9387C75.2121 34.5169 74.4287 34.8417 73.6118 34.8417Z" fill="#161616"/>
<path id="Vector_2" d="M145.39 74.5376H66.0748C65.2579 74.5376 64.4745 74.2127 63.8968 73.6345C63.3191 73.0563 62.9946 72.2721 62.9946 71.4544C62.9946 70.6367 63.3191 69.8525 63.8968 69.2743C64.4745 68.696 65.2579 68.3712 66.0748 68.3712H145.39C146.207 68.3712 146.991 68.696 147.568 69.2743C148.146 69.8525 148.471 70.6367 148.471 71.4544C148.471 72.2721 148.146 73.0563 147.568 73.6345C146.991 74.2127 146.207 74.5376 145.39 74.5376Z" fill="#161616"/>
<path id="Vector_3" d="M145.39 86.0994H66.0748C65.2579 86.0994 64.4745 85.7746 63.8968 85.1964C63.3191 84.6182 62.9946 83.834 62.9946 83.0163C62.9946 82.1986 63.3191 81.4143 63.8968 80.8361C64.4745 80.2579 65.2579 79.9331 66.0748 79.9331H145.39C146.207 79.9331 146.991 80.2579 147.568 80.8361C148.146 81.4143 148.471 82.1986 148.471 83.0163C148.471 83.834 148.146 84.6182 147.568 85.1964C146.991 85.7746 146.207 86.0994 145.39 86.0994Z" fill="#161616"/>
<path id="Polygon 2" d="M103.415 133.275C101.978 132.528 101.978 130.472 103.415 129.725L209.578 74.5617C210.909 73.8699 212.5 74.836 212.5 76.3364L212.5 186.664C212.5 188.164 210.909 189.13 209.578 188.438L103.415 133.275Z" fill="#161616"/>
<path id="Polygon 3" d="M109.585 133.275C111.022 132.528 111.022 130.472 109.585 129.725L3.42217 74.5617C2.09078 73.8699 0.500005 74.836 0.500005 76.3364L0.5 186.664C0.5 188.164 2.09078 189.13 3.42217 188.438L109.585 133.275Z" fill="#161616"/>
</g>
<g id="color1">
<path id="Vector_4" d="M60.9059 24.4361H50.1251C49.3082 24.4361 48.5247 24.1113 47.9471 23.5331C47.3694 22.9549 47.0449 22.1706 47.0449 21.3529C47.0449 20.5352 47.3694 19.751 47.9471 19.1728C48.5247 18.5946 49.3082 18.2698 50.1251 18.2698H60.9059C61.7228 18.2698 62.5063 18.5946 63.0839 19.1728C63.6616 19.751 63.9861 20.5352 63.9861 21.3529C63.9861 22.1706 63.6616 22.9549 63.0839 23.5331C62.5063 24.1113 61.7228 24.4361 60.9059 24.4361Z" fill="#56D364"/>
<path id="Vector_5" d="M139.23 62.5903H72.6203C71.8033 62.5903 71.0199 62.2654 70.4422 61.6872C69.8646 61.109 69.54 60.3248 69.54 59.5071C69.54 58.6894 69.8646 57.9052 70.4422 57.327C71.0199 56.7488 71.8033 56.424 72.6203 56.424H139.23C140.047 56.424 140.83 56.7488 141.408 57.327C141.986 57.9052 142.31 58.6894 142.31 59.5071C142.31 60.3248 141.986 61.109 141.408 61.6872C140.83 62.2654 140.047 62.5903 139.23 62.5903Z" fill="#56D364"/>
<path id="Polygon 1" d="M105.542 128.523C106.139 128.197 106.861 128.197 107.458 128.523L210.905 184.994C212.723 185.987 212.018 188.75 209.947 188.75H3.05352C0.981877 188.75 0.276864 185.987 2.09521 184.994L105.542 128.523Z" fill="#56D364"/>
</g>
</g>
</svg>
