<svg width="12" height="12" viewBox="0 0 12 12" fill="none" xmlns="http://www.w3.org/2000/svg">
<g clip-path="url(#clip0)">
<path d="M11.9971 12V11.9995H12.0001V7.59853C12.0001 5.44553 11.5366 3.78703 9.01963 3.78703C7.80963 3.78703 6.99763 4.45103 6.66613 5.08053H6.63113V3.98803H4.24463V11.9995H6.72963V8.03253C6.72963 6.98803 6.92763 5.97803 8.22113 5.97803C9.49563 5.97803 9.51463 7.17003 9.51463 8.09953V12H11.9971Z" fill="#F2F2F2"/>
<path d="M0.197998 3.98849H2.686V12H0.197998V3.98849Z" fill="#F2F2F2"/>
<path d="M1.441 0C0.6455 0 0 0.6455 0 1.441C0 2.2365 0.6455 2.8955 1.441 2.8955C2.2365 2.8955 2.882 2.2365 2.882 1.441C2.8815 0.6455 2.236 0 1.441 0V0Z" fill="#F2F2F2"/>
</g>
<defs>
<clipPath id="clip0">
<rect width="12" height="12" fill="white"/>
</clipPath>
</defs>
</svg>
